<svg xmlns="http://www.w3.org/2000/svg" width="1200" height="400" viewBox="0 0 1200 400" preserveAspectRatio="none">
  <defs>
    <linearGradient id="wood" x1="0" y1="0" x2="1" y2="1">
      <stop offset="0%" stop-color="#9b6030"/>
      <stop offset="25%" stop-color="#7d4a22"/>
      <stop offset="50%" stop-color="#b3743e"/>
      <stop offset="75%" stop-color="#78441f"/>
      <stop offset="100%" stop-color="#8e5529"/>
    </linearGradient>
    <filter id="grain" x="-20%" y="-20%" width="140%" height="140%">
      <feTurbulence type="fractalNoise" baseFrequency="0.03 0.6" numOctaves="2" seed="12"/>
      <feColorMatrix type="matrix" values="1 0 0 0 0
                                           0 1 0 0 0
                                           0 0 1 0 0
                                           0 0 0 .23 0"/>
    </filter>
  </defs>
  <rect width="1200" height="400" rx="16" fill="url(#wood)"/>
  <rect width="1200" height="400" rx="16" filter="url(#grain)" opacity="0.9"/>
  <g opacity="0.22" stroke="#3b2110" stroke-width="3" fill="none">
    <path d="M0 38c110-20 190 16 290 6 86-8 165-37 261-29 93 7 162 34 257 25 138-13 194-13 392 16"/>
    <path d="M0 140c107-11 185 7 291 0 87-5 165-25 255-21 102 4 181 29 279 19 132-13 215-8 375 10"/>
    <path d="M0 253c105-10 188 18 288 9 86-7 169-32 261-22 96 11 163 33 260 23 136-13 201-22 391 10"/>
    <path d="M0 342c109-18 193 10 287 1 85-8 164-26 256-16 99 11 178 26 281 18 130-10 202-12 376 9"/>
  </g>
</svg>
